<svg width="60" height="60" viewBox="0 0 60 60" fill="none" xmlns="http://www.w3.org/2000/svg">
<path d="M25.7054 19.9812C25.7054 22.4546 27.7105 24.4598 30.1838 24.4598C32.6572 24.4598 34.6623 22.4546 34.6623 19.9812C34.6623 17.5079 32.6572 15.5028 30.1838 15.5028C27.7105 15.5028 25.7054 17.5079 25.7054 19.9812Z" fill="#666666"/>
<path fill-rule="evenodd" clip-rule="evenodd" d="M30 60C46.5686 60 60 46.5685 60 30C60 13.4315 46.5686 0 30 0C13.4314 0 0 13.4315 0 30C0 46.5685 13.4314 60 30 60ZM19.35 19.9811C19.35 13.9978 24.2004 9.14729 30.1838 9.14729C36.1673 9.14729 41.0176 13.9978 41.0176 19.9811C41.0176 25.9645 36.1673 30.8154 30.1838 30.8154C24.2004 30.8154 19.35 25.9645 19.35 19.9811ZM41.0823 36.3881C40.9448 36.4983 38.3457 38.5522 34.0085 39.4358L40.5554 45.9243C41.7067 47.0738 41.7081 48.9389 40.5586 50.0902C39.4091 51.2414 37.5444 51.2432 36.3927 50.0935L30.0368 43.904L24.2639 50.0536C23.6859 50.6532 22.9149 50.9547 22.1431 50.9547C21.407 50.9547 20.6703 50.6808 20.0986 50.1296C18.9274 49.0003 18.8935 47.1355 20.0228 45.9643L26.2369 39.4701C21.7782 38.6073 19.0718 36.4998 18.9324 36.3881C17.6633 35.3702 17.4594 33.5163 18.4772 32.247C19.4949 30.9778 21.3487 30.7739 22.6182 31.7916C22.645 31.8133 25.4756 33.9398 30.0366 33.9429C34.5977 33.9398 37.3698 31.8133 37.3966 31.7916C38.666 30.7739 40.5198 30.9778 41.5375 32.247C42.5553 33.5163 42.3515 35.3702 41.0823 36.3881Z" fill="#666666"/>
</svg>
